<svg width="45" height="45" viewBox="0 0 45 45" fill="none" xmlns="http://www.w3.org/2000/svg">
<path d="M42.5756 39.9244L33 30.3412C35.8158 26.845 37.1839 22.4023 36.8227 17.9278C36.4616 13.4532 34.3986 9.28745 31.0585 6.2881C27.7185 3.28876 23.3556 1.68416 18.8681 1.80467C14.3806 1.92517 10.1101 3.76161 6.93588 6.93588C3.76161 10.1101 1.92517 14.3806 1.80467 18.8681C1.68416 23.3556 3.28876 27.7185 6.2881 31.0585C9.28745 34.3986 13.4532 36.4616 17.9278 36.8227C22.4023 37.1839 26.845 35.8158 30.3412 33L39.9244 42.5831C40.278 42.9247 40.7516 43.1137 41.2432 43.1094C41.7349 43.1051 42.2051 42.9079 42.5528 42.5603C42.9004 42.2126 43.0976 41.7424 43.1019 41.2507C43.1062 40.7591 42.9172 40.2855 42.5756 39.9319V39.9244ZM5.62499 19.3744C5.62499 16.6545 6.43154 13.9958 7.94263 11.7344C9.45372 9.47297 11.6015 7.71044 14.1143 6.66969C16.6271 5.62895 19.3921 5.35674 22.0597 5.88748C24.7272 6.41823 27.1774 7.7281 29.1005 9.65143C31.0236 11.5748 32.3331 14.0252 32.8635 16.6928C33.3939 19.3604 33.1213 22.1254 32.0802 24.638C31.0391 27.1507 29.2763 29.2982 27.0147 30.809C24.753 32.3198 22.0942 33.126 19.3744 33.1256C15.7289 33.1212 12.234 31.6709 9.65636 29.0929C7.07877 26.515 5.62896 23.0199 5.62499 19.3744V19.3744Z" fill="#444"/>
</svg>
